<svg xmlns="http://www.w3.org/2000/svg" viewBox="0 0 320 380" width="320" height="380" role="img" aria-label="Närke Flis AB — Flisning på plats">
  <!-- Stacked lockup: icon above wordmark. Good for centred business-card layouts, stamps, signage. -->
  <!-- icon centred (200-unit art scaled to 200px) -->
  <g transform="translate(60,10) scale(1.0)">
    <circle cx="100" cy="100" r="92" fill="#244d2a"/>
    <circle cx="100" cy="100" r="92" fill="none" stroke="#c8862a" stroke-width="4"/>
    <circle cx="100" cy="100" r="78" fill="none" stroke="#c8862a" stroke-width="1.5"/>
    <g fill="#7ab85f">
      <polygon points="100,46 122,84 78,84"/>
      <polygon points="100,66 128,110 72,110"/>
      <polygon points="100,86 134,132 66,132"/>
    </g>
    <rect x="93" y="130" width="14" height="20" fill="#8a5a22"/>
    <g fill="#c8862a">
      <polygon points="58,156 78,151 82,162 62,167"/>
      <polygon points="122,154 142,158 138,169 118,165"/>
      <polygon points="88,164 106,162 108,173 90,175"/>
    </g>
  </g>
  <!-- wordmark -->
  <text x="160" y="286" text-anchor="middle" font-family="Helvetica, Arial, sans-serif" font-size="36" font-weight="800" fill="#244d2a" textLength="296" lengthAdjust="spacingAndGlyphs">NÄRKE FLIS AB</text>
  <text x="160" y="322" text-anchor="middle" font-family="Helvetica, Arial, sans-serif" font-size="17" font-weight="700" fill="#c8862a" letter-spacing="3">FLISNING PÅ PLATS</text>
</svg>
