<svg xmlns="http://www.w3.org/2000/svg" viewBox="0 0 850 550" width="850" height="550" role="img" aria-label="Närke Flis AB visitkort baksida">
  <!-- Business card BACK — 85x55mm ratio. Contact side. -->
  <rect width="850" height="550" fill="#f5f0e6"/>
  <rect x="0" y="0" width="14" height="550" fill="#c8862a"/>

  <!-- header: icon + company name -->
  <g transform="translate(54,40) scale(0.52)">
    <circle cx="100" cy="100" r="92" fill="#244d2a"/>
    <circle cx="100" cy="100" r="92" fill="none" stroke="#c8862a" stroke-width="4"/>
    <circle cx="100" cy="100" r="78" fill="none" stroke="#c8862a" stroke-width="1.5"/>
    <g fill="#7ab85f">
      <polygon points="100,46 122,84 78,84"/>
      <polygon points="100,66 128,110 72,110"/>
      <polygon points="100,86 134,132 66,132"/>
    </g>
    <rect x="93" y="130" width="14" height="20" fill="#8a5a22"/>
    <g fill="#c8862a">
      <polygon points="58,156 78,151 82,162 62,167"/>
      <polygon points="122,154 142,158 138,169 118,165"/>
      <polygon points="88,164 106,162 108,173 90,175"/>
    </g>
  </g>
  <text x="174" y="86" font-family="Helvetica, Arial, sans-serif" font-size="36" font-weight="800" fill="#244d2a">Närke Flis AB</text>
  <text x="176" y="116" font-family="Helvetica, Arial, sans-serif" font-size="16" font-weight="700" fill="#c8862a" letter-spacing="2">FLISNING PÅ PLATS</text>

  <line x1="54" y1="158" x2="796" y2="158" stroke="#dcd2bd" stroke-width="2"/>

  <!-- contact person -->
  <text x="54" y="222" font-family="Helvetica, Arial, sans-serif" font-size="32" font-weight="800" fill="#244d2a">Tomas Karlsson</text>

  <!-- contact rows: amber line icons (Feather, 24x24) + value -->
  <g stroke="#c8862a" stroke-width="2" fill="none" stroke-linecap="round" stroke-linejoin="round">
    <g transform="translate(56,262) scale(1.25)">
      <path d="M22 16.92v3a2 2 0 0 1-2.18 2 19.79 19.79 0 0 1-8.63-3.07 19.5 19.5 0 0 1-6-6 19.79 19.79 0 0 1-3.07-8.67A2 2 0 0 1 4.11 2h3a2 2 0 0 1 2 1.72c.13.96.36 1.9.7 2.81a2 2 0 0 1-.45 2.11L8.09 9.91a16 16 0 0 0 6 6l1.27-1.27a2 2 0 0 1 2.11-.45c.91.34 1.85.57 2.81.7A2 2 0 0 1 22 16.92z"/>
    </g>
    <g transform="translate(56,322) scale(1.25)">
      <rect x="2" y="4" width="20" height="16" rx="2"/>
      <path d="M22 7 12 14 2 7"/>
    </g>
    <g transform="translate(56,382) scale(1.25)">
      <circle cx="12" cy="12" r="10"/>
      <line x1="2" y1="12" x2="22" y2="12"/>
      <path d="M12 2a15.3 15.3 0 0 1 4 10 15.3 15.3 0 0 1-4 10 15.3 15.3 0 0 1-4-10 15.3 15.3 0 0 1 4-10z"/>
    </g>
  </g>
  <g font-family="Helvetica, Arial, sans-serif" font-size="26" fill="#33402f">
    <text x="98" y="284">+46 76 276 15 60</text>
    <text x="98" y="344">tomas@narkeflis.com</text>
    <text x="98" y="404">narkeflis.com</text>
  </g>

  <text x="796" y="510" text-anchor="end" font-family="Helvetica, Arial, sans-serif" font-size="18" fill="#9a8f78" letter-spacing="1">Närke · Sverige</text>
</svg>
